# xmcd
#
# Track frame offsets:
# 150
# 11786
# 22543
# 33026
# 43786
# 53192
# 63672
# 74841
# 86538
# 96533
# 107760
# 118650
# 132518
# 144046
# 154453
# 164865
#
# Disc length: 2349 seconds
#
#
# Revision: 0
# Processed by: cddbd v1.5PL3 Copyright (c) Steve Scherf et al.
# Submitted via: FreeRIP 2.60 
#
DISCID=e5092b10
DTITLE=Patsy Cline - The Great Patsy Cline - Disc 1
DYEAR=2000
DGENRE=Folk
TTITLE0=Walkin' After Midnight
TTITLE1=Honky Tonk Merry-Go-Round
TTITLE2=I Love You Honey
TTITLE3=Stop, Look and Listen
TTITLE4=Come On In
TTITLE5=He Will Do For You
TTITLE6=A Stranger In My Arms
TTITLE7=I've Loved And Lost Again
TTITLE8=Turn The Cards Slowly
TTITLE9=Hidin Out
TTITLE10=I Cried All The Way To The Altar
TTITLE11=A Church A Courtroom And Then Goodbye
TTITLE12=The Heart You Break May Be Your Own
TTITLE13=Pick Me Up On Your Way Down
TTITLE14=Too Many Streets
TTITLE15=Dear God I Go To Church On A Sunday
EXTD=
EXTT0=
EXTT1=
EXTT2=
EXTT3=
EXTT4=
EXTT5=
EXTT6=
EXTT7=
EXTT8=
EXTT9=
EXTT10=
EXTT11=
EXTT12=
EXTT13=
EXTT14=
EXTT15=
PLAYORDER=
